<!DOCTYPE svg PUBLIC "-//W3C//DTD SVG 1.1//EN" "http://www.w3.org/Graphics/SVG/1.1/DTD/svg11.dtd">
<svg version="1.1" xmlns="http://www.w3.org/2000/svg" xmlns:xlink="http://www.w3.org/1999/xlink" x="0px" y="0px" width="32px"
	 height="32px" viewBox="0 0 32 32" enable-background="new 0 0 32 32" xml:space="preserve">
<g id="Layer_3" display="none">
	<rect display="inline" fill="#00246B" width="32" height="32"/>
</g>
<g id="Layer_1">
	<g>
		<g>
			<path fill="#FFFFFF" d="M75.864,31.305c-0.433,0-1.152-0.03-1.931-0.03h-0.919v-0.697c0.273-0.064,0.602-0.118,0.919-0.14v-5.458
				c-0.318-0.02-0.646-0.072-0.919-0.137v-0.697H73.9c0.538,0,1.405-0.03,2.258-0.03c1.552,0,2.354,0.632,2.354,1.732
				c0,0.729-0.485,1.373-1.212,1.625v0.021c0.928,0.181,1.36,0.888,1.36,1.627C78.66,30.048,78.049,31.305,75.864,31.305z
				 M75.969,25.036c-0.316,0-0.622,0.008-0.897,0.02v2.111c0.18,0.01,0.379,0.01,0.612,0.01c1.066,0,1.626-0.434,1.626-1.151
				C77.31,25.445,76.994,25.036,75.969,25.036z M75.716,28.032c-0.116,0-0.486,0-0.644,0.01v2.27
				c0.18,0.032,0.464,0.052,0.834,0.052c1.044,0,1.542-0.503,1.542-1.223C77.447,28.326,76.719,28.032,75.716,28.032z"/>
		</g>
		<g>
			<path fill="#FFFFFF" d="M79.244,9.229v3.833c0,1.837-0.949,2.795-2.797,2.795c-2.218,0-2.639-1.234-2.639-2.458v-4.17
				c-0.256-0.022-0.518-0.073-0.75-0.137V8.638h2.428v0.454c-0.264,0.074-0.568,0.115-0.865,0.137v4.095
				c0,1.024,0.35,1.869,1.879,1.869c1.319,0,1.954-0.548,1.954-2.068V9.229c-0.296-0.022-0.613-0.063-0.878-0.137V8.638h2.42v0.454
				C79.762,9.156,79.509,9.207,79.244,9.229z"/>
			<path fill="#FFFFFF" d="M87.762,9.239v6.526h-1.076l-2.989-4.729c-0.315-0.52-0.59-0.995-0.821-1.457
				c0.072,1.277,0.072,3.357,0.072,5.583c0.296,0.021,0.611,0.076,0.878,0.147v0.457h-2.587v-0.457
				c0.271-0.062,0.602-0.126,0.918-0.147V9.229c-0.316-0.022-0.646-0.073-0.918-0.137V8.638h1.994l2.957,4.676
				c0.305,0.496,0.579,0.972,0.844,1.479c-0.064-1.256-0.074-3.327-0.074-5.554c-0.295-0.02-0.602-0.073-0.855-0.147V8.638h2.407
				v0.454C88.279,9.156,88.014,9.207,87.762,9.239z"/>
			<path fill="#FFFFFF" d="M89.555,15.765v-0.457c0.275-0.062,0.604-0.116,0.92-0.135V9.229c-0.316-0.022-0.645-0.073-0.92-0.137
				V8.638h2.639v0.454c-0.273,0.063-0.601,0.115-0.917,0.137v5.944c0.316,0.02,0.644,0.074,0.917,0.135v0.457H89.555z"/>
			<path fill="#FFFFFF" d="M96.229,13.379c0.146,0.42,0.35,0.98,0.498,1.52h0.009c0.138-0.519,0.317-1.036,0.507-1.585l1.488-4.085
				c-0.295-0.022-0.6-0.073-0.865-0.137V8.638h2.375v0.454c-0.18,0.051-0.465,0.104-0.664,0.127l-2.428,6.546h-0.9l-2.353-6.546
				c-0.201-0.023-0.485-0.076-0.665-0.127V8.638h2.449v0.454c-0.264,0.063-0.58,0.115-0.877,0.137L96.229,13.379z"/>
			<path fill="#FFFFFF" d="M101.159,15.765v-0.457c0.273-0.062,0.601-0.116,0.918-0.135V9.229c-0.317-0.022-0.645-0.073-0.918-0.137
				V8.638h4.508v1.584h-0.538c-0.065-0.349-0.139-0.696-0.16-0.952h-2.09v2.513h1.656c0.045-0.272,0.096-0.537,0.171-0.771h0.475
				v2.154h-0.475c-0.075-0.23-0.138-0.518-0.171-0.771h-1.656v2.715h2.104c0.03-0.275,0.092-0.624,0.166-0.973h0.537v1.627H101.159z
				"/>
			<path fill="#FFFFFF" d="M111.171,15.765l-2.198-3.293h-0.17v2.702c0.286,0.02,0.592,0.063,0.846,0.135v0.457h-2.565v-0.457
				c0.272-0.062,0.603-0.116,0.919-0.135V9.229c-0.316-0.022-0.646-0.073-0.919-0.137V8.638h0.812c0.284,0,0.932-0.032,1.785-0.032
				c1.342,0,2.355,0.464,2.355,1.794c0,1.214-0.951,1.912-2.188,1.995c0.182,0.211,0.357,0.466,0.519,0.697l1.426,2.059
				c0.254,0.031,0.56,0.085,0.875,0.148v0.466H111.171z M109.5,9.25c-0.264,0-0.487,0.011-0.697,0.032v2.565
				c0.117,0.011,0.338,0.021,0.654,0.021c1.098,0,1.732-0.561,1.732-1.353C111.189,9.588,110.586,9.25,109.5,9.25z"/>
			<path fill="#FFFFFF" d="M115.391,15.857c-0.544,0-1.064-0.072-1.475-0.188v-1.594h0.549c0.062,0.359,0.115,0.687,0.146,0.971
				c0.254,0.063,0.561,0.104,0.822,0.104c0.932,0,1.701-0.369,1.701-1.341c0-1.687-3.314-1.043-3.314-3.294
				c0-1.127,0.908-1.973,2.459-1.973c0.477,0,0.879,0.052,1.319,0.147v1.552h-0.549c-0.064-0.358-0.115-0.686-0.138-0.959
				c-0.169-0.032-0.443-0.063-0.674-0.063c-1.045,0-1.586,0.486-1.586,1.214c0,1.636,3.314,1.045,3.314,3.272
				C117.967,14.961,116.985,15.857,115.391,15.857z"/>
			<path fill="#FFFFFF" d="M119.037,15.765v-0.457c0.275-0.062,0.602-0.116,0.918-0.135V9.229c-0.316-0.022-0.643-0.073-0.918-0.137
				V8.638h2.642v0.454c-0.275,0.063-0.603,0.115-0.921,0.137v5.944c0.318,0.02,0.646,0.074,0.921,0.135v0.457H119.037z"/>
			<path fill="#FFFFFF" d="M125.426,15.795c-0.705,0-1.305-0.03-1.719-0.03h-0.92v-0.457c0.275-0.062,0.604-0.116,0.92-0.135V9.229
				c-0.316-0.022-0.645-0.073-0.92-0.137V8.638h0.91c0.559,0,1.33-0.032,2.07-0.032c2.312,0,3.662,1.099,3.662,3.526
				C129.43,14.581,127.772,15.795,125.426,15.795z M125.671,9.261c-0.39,0-0.866,0.021-1.159,0.034v5.762
				c0.293,0.042,0.727,0.074,1.023,0.074c1.805,0,3.05-0.917,3.05-2.945C128.585,10.253,127.602,9.261,125.671,9.261z"/>
			<path fill="#FFFFFF" d="M134.729,15.765v-0.457c0.264-0.062,0.58-0.116,0.877-0.135l-0.468-1.257h-3.145l-0.454,1.257
				c0.297,0.02,0.601,0.074,0.865,0.135v0.457h-2.373v-0.457c0.178-0.053,0.465-0.104,0.676-0.126l2.437-6.544h0.919l2.44,6.544
				c0.199,0.022,0.483,0.073,0.672,0.126v0.457H134.729z M133.895,10.495c-0.137-0.358-0.232-0.675-0.326-1.043h-0.011
				c-0.084,0.347-0.19,0.685-0.317,1.033l-1.026,2.788h2.704L133.895,10.495z"/>
			<path fill="#FFFFFF" d="M140.81,15.795c-0.708,0-1.31-0.03-1.722-0.03h-0.92v-0.457c0.275-0.062,0.606-0.116,0.92-0.135V9.229
				c-0.313-0.022-0.645-0.073-0.92-0.137V8.638h0.908c0.562,0,1.331-0.032,2.072-0.032c2.31,0,3.662,1.099,3.662,3.526
				C144.811,14.581,143.154,15.795,140.81,15.795z M141.052,9.261c-0.39,0-0.865,0.021-1.161,0.034v5.762
				c0.296,0.042,0.729,0.074,1.024,0.074c1.806,0,3.052-0.917,3.052-2.945C143.967,10.253,142.984,9.261,141.052,9.261z"/>
			<path fill="#FFFFFF" d="M145.776,15.765v-0.457c0.275-0.062,0.603-0.116,0.918-0.135V9.229c-0.315-0.022-0.643-0.073-0.918-0.137
				V8.638h4.508v1.584h-0.54c-0.058-0.349-0.133-0.696-0.156-0.952h-2.091v2.513h1.656c0.045-0.272,0.1-0.537,0.171-0.771h0.475
				v2.154h-0.475c-0.071-0.23-0.137-0.518-0.171-0.771h-1.656v2.715h2.101c0.032-0.275,0.098-0.624,0.169-0.973h0.54v1.627H145.776z
				"/>
		</g>
		<g>
			<path fill="#FFFFFF" d="M79.542,31.274v-0.697c0.274-0.064,0.603-0.118,0.919-0.14v-5.458c-0.316-0.02-0.645-0.072-0.919-0.137
				v-0.697h4.72v1.71h-0.836c-0.051-0.294-0.104-0.579-0.126-0.8h-1.7v2.133h1.361c0.033-0.232,0.076-0.455,0.141-0.655h0.715v2.153
				h-0.715c-0.064-0.201-0.117-0.444-0.141-0.654H81.6v2.312h1.711c0.021-0.253,0.074-0.54,0.138-0.846h0.835v1.776H79.542z"/>
			<path fill="#FFFFFF" d="M85.377,31.274v-0.697c0.275-0.064,0.604-0.118,0.92-0.14v-5.458c-0.316-0.02-0.645-0.072-0.92-0.137
				v-0.697h2.979v0.697c-0.275,0.064-0.604,0.117-0.922,0.137v5.458c0.318,0.021,0.646,0.075,0.922,0.14v0.697H85.377z"/>
			<path fill="#FFFFFF" d="M93.441,31.274l-1.934-3.084h-0.181v2.247c0.245,0.021,0.497,0.064,0.73,0.129v0.708h-2.786v-0.697
				c0.274-0.064,0.602-0.118,0.918-0.14v-5.458c-0.316-0.02-0.644-0.072-0.918-0.137v-0.697h0.822c0.275,0,1.131-0.041,1.996-0.041
				c1.477,0,2.489,0.518,2.489,1.931c0,1.078-0.782,1.785-1.878,1.955c0.146,0.178,0.295,0.391,0.422,0.591l1.235,1.849
				c0.221,0.029,0.483,0.072,0.761,0.125v0.72H93.441z M91.932,25.043c-0.223,0-0.435,0.012-0.604,0.023v2.257
				c0.106,0.011,0.31,0.022,0.562,0.022c0.927,0,1.488-0.477,1.488-1.182C93.377,25.382,92.892,25.043,91.932,25.043z"/>
			<path fill="#FFFFFF" d="M100.776,31.274v-0.697c0.243-0.056,0.538-0.106,0.803-0.13l-0.369-1.001h-2.818l-0.36,1.001
				c0.265,0.023,0.562,0.074,0.803,0.13v0.697h-2.566v-0.697c0.18-0.056,0.424-0.098,0.612-0.118l2.271-6.313h1.383l2.3,6.313
				c0.189,0.021,0.434,0.062,0.613,0.118v0.697H100.776z M100.122,26.386c-0.138-0.372-0.234-0.707-0.317-1.098h-0.02
				c-0.076,0.367-0.19,0.748-0.328,1.13l-0.77,2.122h2.227L100.122,26.386z"/>
			<path fill="#FFFFFF" d="M106.562,31.274v-0.697c0.274-0.064,0.602-0.118,0.918-0.14v-5.458c-0.316-0.02-0.644-0.072-0.918-0.137
				v-0.697h2.977v0.697c-0.275,0.064-0.602,0.117-0.918,0.137v5.458c0.316,0.021,0.643,0.075,0.918,0.14v0.697H106.562z"/>
			<path fill="#FFFFFF" d="M117.428,24.979v6.295h-1.488l-2.49-4.055c-0.328-0.528-0.57-1.036-0.793-1.501
				c0.074,1.161,0.064,2.884,0.064,4.719c0.273,0.021,0.559,0.064,0.811,0.129v0.708h-2.838v-0.697
				c0.275-0.064,0.602-0.118,0.918-0.14v-5.458c-0.316-0.02-0.643-0.072-0.918-0.137v-0.697h2.417l2.461,4.022
				c0.317,0.519,0.546,0.973,0.812,1.49c-0.076-1.142-0.076-2.852-0.076-4.679c-0.262-0.02-0.535-0.063-0.771-0.126v-0.708h2.599
				v0.708C117.914,24.907,117.67,24.959,117.428,24.979z"/>
			<path fill="#FFFFFF" d="M124.686,26.025h-0.824c-0.063-0.371-0.127-0.675-0.148-0.939h-1.289v5.351
				c0.32,0.021,0.646,0.075,0.92,0.14v0.697h-2.985v-0.697c0.273-0.064,0.6-0.118,0.918-0.14v-5.351h-1.299
				c-0.02,0.264-0.073,0.568-0.137,0.939h-0.825v-1.88h5.67V26.025z"/>
			<path fill="#FFFFFF" d="M125.887,31.274v-0.697c0.275-0.064,0.603-0.118,0.916-0.14v-5.458c-0.313-0.02-0.641-0.072-0.916-0.137
				v-0.697h4.721v1.71h-0.838c-0.052-0.294-0.105-0.579-0.125-0.8h-1.699v2.133h1.359c0.031-0.232,0.074-0.455,0.141-0.655h0.715
				v2.153h-0.715c-0.066-0.201-0.117-0.444-0.141-0.654h-1.359v2.312h1.71c0.021-0.253,0.072-0.54,0.137-0.846h0.833v1.776H125.887z
				"/>
			<path fill="#FFFFFF" d="M135.812,31.274l-1.933-3.084h-0.181v2.247c0.242,0.021,0.498,0.064,0.729,0.129v0.708h-2.788v-0.697
				c0.275-0.064,0.603-0.118,0.92-0.14v-5.458c-0.317-0.02-0.645-0.072-0.92-0.137v-0.697h0.824c0.272,0,1.131-0.041,1.997-0.041
				c1.478,0,2.489,0.518,2.489,1.931c0,1.078-0.782,1.785-1.88,1.955c0.147,0.178,0.296,0.391,0.424,0.591l1.235,1.849
				c0.221,0.029,0.483,0.072,0.761,0.125v0.72H135.812z M134.303,25.043c-0.225,0-0.435,0.012-0.604,0.023v2.257
				c0.106,0.011,0.307,0.022,0.561,0.022c0.928,0,1.49-0.477,1.49-1.182C135.749,25.382,135.261,25.043,134.303,25.043z"/>
			<path fill="#FFFFFF" d="M138.381,31.274v-0.697c0.273-0.064,0.602-0.118,0.917-0.14v-5.458c-0.315-0.02-0.644-0.072-0.917-0.137
				v-0.697h2.979v0.697c-0.276,0.064-0.605,0.117-0.92,0.137v5.458c0.314,0.021,0.644,0.075,0.92,0.14v0.697H138.381z"/>
			<path fill="#FFFFFF" d="M145.653,31.378c-2.165,0-3.212-1.404-3.212-3.589c0-2.366,1.543-3.748,3.423-3.748
				c1.92,0,3.209,1.193,3.209,3.578C149.073,29.986,147.543,31.378,145.653,31.378z M145.759,25.056c-1.1,0-2.091,0.886-2.091,2.595
				c0,1.616,0.664,2.704,2.07,2.704c1.055,0,2.108-0.847,2.108-2.616C147.847,26.014,147.089,25.056,145.759,25.056z"/>
			<path fill="#FFFFFF" d="M153.865,31.274l-1.935-3.084h-0.178v2.247c0.241,0.021,0.497,0.064,0.728,0.129v0.708h-2.785v-0.697
				c0.273-0.064,0.603-0.118,0.915-0.14v-5.458c-0.312-0.02-0.642-0.072-0.915-0.137v-0.697h0.821c0.276,0,1.133-0.041,1.994-0.041
				c1.479,0,2.493,0.518,2.493,1.931c0,1.078-0.783,1.785-1.88,1.955c0.147,0.178,0.296,0.391,0.421,0.591l1.235,1.849
				c0.224,0.029,0.485,0.072,0.759,0.125v0.72H153.865z M152.354,25.043c-0.223,0-0.435,0.012-0.602,0.023v2.257
				c0.104,0.011,0.306,0.022,0.557,0.022c0.929,0,1.491-0.477,1.491-1.182C153.801,25.382,153.312,25.043,152.354,25.043z"/>
		</g>
	</g>
	<g>
		<path fill="#FFFFFF" d="M4.661,24.595V5.796H0.987v16.722c0,2.125,2.214,3.849,5.214,3.849c0.195,0,0.392-0.009,0.584-0.023
			C5.583,26.215,4.661,25.481,4.661,24.595"/>
		<path fill="#FFFFFF" d="M9.357,0.081v24.208v2.078c2.256-0.605,3.682-2.502,3.682-4.75V0.081H9.357z"/>
		<path fill="#FFFFFF" d="M17.444,5.796c1.137,2.472,1.328,4.227,1.243,5.53c-0.062,0.942-0.166,2.231-0.453,3.665
			c-0.425,2.117-0.551,3.226-0.543,3.947c0.02,0.721,0.186,1.832,0.689,3.945c0.343,1.436,0.496,2.725,0.592,3.667
			c0.134,1.302,0.007,3.057-1.033,5.53h3.683c1.041-2.474,1.168-4.228,1.034-5.53c-0.095-0.943-0.248-2.231-0.59-3.667
			c-0.504-2.113-0.67-3.224-0.689-3.945c-0.008-0.722,0.114-1.831,0.542-3.947c0.289-1.433,0.392-2.722,0.451-3.665
			c0.087-1.303-0.105-3.059-1.24-5.53H17.444z"/>
		<path fill="#FFFFFF" d="M26.677,5.796c0,0,0.809,4.273,0.809,10.286s-0.809,10.285-0.809,10.285h3.682
			c0,0,0.806-4.272,0.806-10.285S30.359,5.796,30.359,5.796H26.677z"/>
	</g>
</g>
<g id="Layer_2" display="none">
	<rect y="12" display="inline" fill="#FF0000" width="4" height="4"/>
	<rect x="16" y="28" display="inline" fill="#FF0000" width="4" height="4"/>
	<rect x="9" display="inline" fill="#FF0000" width="4" height="4"/>
	<rect x="28" y="12" display="inline" fill="#FF0000" width="4" height="4"/>
</g>
</svg>